<?xml version="1.0" encoding="UTF-8"?>
<svg version="1.1" xmlns="http://www.w3.org/2000/svg" width="129" height="128">
<path d="M0 0 C42.57 0 85.14 0 129 0 C129 42.24 129 84.48 129 128 C86.43 128 43.86 128 0 128 C0 85.76 0 43.52 0 0 Z " fill="#EEC449" transform="translate(0,0)"/>
<path d="M0 0 C0.66 0 1.32 0 2 0 C4.1441356 13.16129072 6.25726801 26.32110804 8.0480957 39.53588867 C8.15984131 40.34646729 8.27158691 41.1570459 8.38671875 41.9921875 C8.48170654 42.69714355 8.57669434 43.40209961 8.67456055 44.12841797 C8.99016926 46.21889114 8.99016926 46.21889114 10 49 C13.63 44.38 17.26 39.76 21 35 C25.77379752 36.19344938 27.38574709 37.79645765 31 41 C28.88060821 44.71060708 26.5076108 47.99883918 23.8125 51.3125 C23.09707031 52.19550781 22.38164063 53.07851562 21.64453125 53.98828125 C21.10183594 54.65214844 20.55914062 55.31601563 20 56 C20.69222656 55.96970703 21.38445312 55.93941406 22.09765625 55.90820312 C38.40822401 55.20979278 54.67478815 54.8540186 71 55 C67.38078572 59.91274391 63.66875465 64.68887203 59.6875 69.3125 C54.7107748 75.1438315 49.83636659 81.05152773 45 87 C40.06563542 93.05916982 35.11797248 99.09464714 30 105 C24.46987635 100.92512345 19.10058699 96.69598919 13.8125 92.3125 C13.07346436 91.70237061 12.33442871 91.09224121 11.57299805 90.46362305 C6.59069715 86.34228786 1.6569871 82.16711963 -3.26098633 77.96948242 C-7.61077101 74.27943198 -12.09369851 70.77845578 -16.60327148 67.28686523 C-21.96916178 63.09740948 -27.10042556 58.65598208 -32.20263672 54.15087891 C-35.38376312 51.26744666 -35.38376312 51.26744666 -39 49 C-37.31803743 44.91949908 -34.44815714 41.88767767 -31.5625 38.625 C-27.40017582 33.85086431 -23.37328112 29.01143861 -19.5 24 C-15.13250957 18.35552638 -10.57273713 12.90856972 -5.8828125 7.52929688 C-3.7569836 5.08545314 -1.79983972 2.69975958 0 0 Z " fill="#363533" transform="translate(48,12)"/>
<path d="M0 0 C-5.30591652 7.31356061 -11.12558825 14.1430354 -17 21 C-21.5355862 18.51663721 -25.24885362 15.37836758 -29.125 12 C-29.74503906 11.46632813 -30.36507812 10.93265625 -31.00390625 10.3828125 C-33.76135286 7.99895543 -36.44400011 5.60107756 -39 3 C-35.90327961 -0.09672039 -32.10790105 0.52294957 -27.9375 0.375 C-27.05094727 0.33705322 -26.16439453 0.29910645 -25.25097656 0.26000977 C-16.83345284 -0.07083943 -8.42224856 -0.09818684 0 0 Z " fill="#E3B83C" transform="translate(94,79)"/>
<path d="M0 0 C2.69346836 2.69346836 2.56700922 4.60657395 3.0703125 8.36328125 C3.24433594 9.64267578 3.41835938 10.92207031 3.59765625 12.24023438 C3.72744873 13.24316528 3.72744873 13.24316528 3.85986328 14.26635742 C4.12278808 16.29542989 4.39813615 18.32250423 4.67578125 20.34960938 C6.11761776 31.14170143 6.11761776 31.14170143 6 36 C1.90563187 34.30404849 -1.19632246 31.43542593 -4.5 28.5625 C-9.62765302 24.12999697 -9.62765302 24.12999697 -15 20 C-13.60633871 15.80403053 -11.64159779 13.20701426 -8.625 10 C-5.6006213 6.76320674 -2.72992148 3.49031057 0 0 Z " fill="#EFC855" transform="translate(41,39)"/>
<path d="M0 0 C1.32 0 2.64 0 4 0 C4 42.24 4 84.48 4 128 C2.68 127.67 1.36 127.34 0 127 C0.99 126.01 0.99 126.01 2 125 C2.3040397 122.76819395 2.3040397 122.76819395 2.25396729 120.14808655 C2.25960693 119.1231459 2.26524658 118.09820526 2.27105713 117.04220581 C2.26700867 115.9133194 2.26296021 114.78443298 2.25878906 113.62133789 C2.2622937 112.43592911 2.26579834 111.25052032 2.26940918 110.02919006 C2.27671817 106.77295784 2.27498388 103.51688743 2.26865101 100.26065755 C2.26359594 96.85609544 2.26828119 93.45154433 2.27142334 90.04698181 C2.27506493 84.32793226 2.27025938 78.6089343 2.26074219 72.88989258 C2.24986243 66.2756429 2.2533789 59.66151656 2.264395 53.04726988 C2.27346862 47.37248429 2.27475264 41.69773585 2.26951766 36.02294534 C2.26639769 32.63193041 2.26598922 29.24097346 2.27259064 25.84996223 C2.27765232 22.06924144 2.26995014 18.28875957 2.25878906 14.50805664 C2.26283752 13.38119446 2.26688599 12.25433228 2.27105713 11.09332275 C2.26541748 10.06556229 2.25977783 9.03780182 2.25396729 7.97889709 C2.25321323 7.08459016 2.25245918 6.19028322 2.25168228 5.26887608 C2.1447911 2.71930462 2.1447911 2.71930462 0 0 Z " fill="#FFFFFF" transform="translate(125,0)"/>
</svg>
